# xmcd
#
# Track frame offsets: 
#        150
#        12634
#        24603
#        37538
#        49178
#        63121
#        75449
#        88654
#        100125
#        112244
#        124374
#        136461
#        148408
#        161419
#        174364
#        188142
#        200648
#        212420
#        226637
#        237946
#        249175
#        261599
#        274996
#        287414
#        300222
#        314067
#        326177
#
# Disc length: 4524 seconds
#
# Revision: 2
# Processed by: cddbd v1.5.2PL0 Copyright (c) Steve Scherf et al.
# Submitted via: ExactAudioCopy v0.95b2
#
DISCID=8011aa1b
DTITLE=The Carter Family - The Carter Family Volume 2 Disc 5 Chicago, 
DTITLE=New York City, 1940-1941
DYEAR=2003
DGENRE=Roots
TTITLE0=Heaven's Radio
TTITLE1=Beautiful Home
TTITLE2=There'll Be No Distinction There
TTITLE3=Give Him One More As He Goes
TTITLE4=Lonesome For You Darling
TTITLE5=Blackie's Gunman
TTITLE6=You've Got To Righten That Wrong
TTITLE7=Meeting In The Air
TTITLE8=My Home Among The Hills
TTITLE9=Black Jack David
TTITLE10=Look Away From The Cross
TTITLE11=We Shall Rise
TTITLE12=I Found You Among The Roses
TTITLE13=Bear Creek Blues
TTITLE14=I'll Never Forsake You
TTITLE15=Beautiful Isle O'er The Sea
TTITLE16=It's A Long Road To Travel Alone
TTITLE17=Why Do You Cry, Little Darling
TTITLE18=Lonesome Homesick Blues
TTITLE19=Dark And Stormy Weather
TTITLE20=In The Valley Of The Shenandoah
TTITLE21=Girl On The Greenbrier Shore, The
TTITLE22=Something Got A Hold Of Me
TTITLE23=Fifty Miles Of Elbow Room
TTITLE24=Keep On The Firing Line
TTITLE25=The Wave On The Sea
TTITLE26=The Rambling Boy
EXTD=
EXTT0=
EXTT1=
EXTT2=
EXTT3=
EXTT4=
EXTT5=
EXTT6=
EXTT7=
EXTT8=
EXTT9=
EXTT10=
EXTT11=
EXTT12=
EXTT13=
EXTT14=
EXTT15=
EXTT16=
EXTT17=
EXTT18=
EXTT19=
EXTT20=
EXTT21=
EXTT22=
EXTT23=
EXTT24=
EXTT25=
EXTT26=
PLAYORDER=
